<svg xmlns="http://www.w3.org/2000/svg" viewBox="0 0 1000 1000"><circle cx="500" cy="500" r="500" fill="#161B41"/><g transform="translate(500 500) scale(.6) translate(-600 -600)" fill="#fff"><g><rect x="220" y="150" width="160" height="900"/><path d="M165 1050V1032Q165 1024 173 1024H196Q224 1024 224 1000H376Q376 1024 404 1024H427Q435 1024 435 1032V1050Z"/><path d="M165 150H224V200Q224 176 196 176H173Q165 176 165 168Z"/></g><g transform="translate(1200 0) scale(-1 1)"><rect x="220" y="150" width="160" height="900"/><path d="M165 1050V1032Q165 1024 173 1024H196Q224 1024 224 1000H376Q376 1024 404 1024H427Q435 1024 435 1032V1050Z"/><path d="M165 150H224V200Q224 176 196 176H173Q165 176 165 168Z"/></g><polygon points="220,150 390,150 600,553.4 810,150 980,150 600,880"/></g></svg>